PathFileType	4	(X/Y/Z)	 0.16m3min.trc
DataRate	CameraRate	NumFrames	NumMarkers	Units	OrigDataRate	OrigDataStartFrame	OrigNumFrames
200	200	9	43	m	200	876	1000
Frame#	Time	C7			LSH			RSH			MAN			RASI			LASI			HIPR			HIPL			RPSI			LPSI			COX			RTHI1			RTHI2			RTHI3			RTHI4			RLKN			RMKN			RSHA1			RSHA2			RSHA3			RSHA4			RLMAL			RMMAL			RHEEL			RMET5			RMET1			RTOE			LTHI1			LTHI2			LTHI3			LTHI4			LLKN			LMKN			LSHA1			LSHA2			LSHA3			LSHA4			LLMAL			LMMAL			LHEEL			LMET5			LMET1			LTOE			
		X1	Y1	Z1	X2	Y2	Z2	X3	Y3	Z3	X4	Y4	Z4	X5	Y5	Z5	X6	Y6	Z6	X7	Y7	Z7	X8	Y8	Z8	X9	Y9	Z9	X10	Y10	Z10	X11	Y11	Z11	X12	Y12	Z12	X13	Y13	Z13	X14	Y14	Z14	X15	Y15	Z15	X16	Y16	Z16	X17	Y17	Z17	X18	Y18	Z18	X19	Y19	Z19	X20	Y20	Z20	X21	Y21	Z21	X22	Y22	Z22	X23	Y23	Z23	X24	Y24	Z24	X25	Y25	Z25	X26	Y26	Z26	X27	Y27	Z27	X28	Y28	Z28	X29	Y29	Z29	X30	Y30	Z30	X31	Y31	Z31	X32	Y32	Z32	X33	Y33	Z33	X34	Y34	Z34	X35	Y35	Z35	X36	Y36	Z36	X37	Y37	Z37	X38	Y38	Z38	X39	Y39	Z39	X40	Y40	Z40	X41	Y41	Z41	X42	Y42	Z42	X43	Y43	Z43	
876	4.3800	-0.279939	1.572145	-0.460301	-0.282982	1.568449	-0.631442	-0.206917	1.570837	-0.290160	-0.151253	1.521418	-0.477301	-0.115096	1.084471	-0.364922	-0.134711	1.093636	-0.588403	-0.163384	1.143741	-0.330419	-0.192029	1.145963	-0.610104	-0.263905	1.143618	-0.404995	-0.272453	1.144542	-0.510296	-0.268994	1.147677	-0.453727	-0.231672	0.871968	-0.285686	-0.225491	0.812073	-0.285588	-0.161450	0.814913	-0.293596	-0.159202	0.876531	-0.295381	-0.236903	0.583104	-0.309964	-0.221956	0.563551	-0.406402	-0.314820	0.393818	-0.295261	-0.319966	0.351732	-0.301150	-0.260053	0.349199	-0.289715	-0.257833	0.389580	-0.288867	-0.295266	0.207689	-0.306787	-0.258683	0.219862	-0.374653	-0.330170	0.206342	-0.360365	-0.220846	0.090149	-0.281611	-0.167579	0.094460	-0.342454	-0.150986	0.078267	-0.329139	-0.257317	0.887111	-0.660463	-0.246806	0.826740	-0.667200	-0.181905	0.831760	-0.663455	-0.184926	0.891233	-0.657636	-0.258034	0.589870	-0.647152	-0.235177	0.573541	-0.551225	-0.334129	0.374119	-0.656753	-0.335914	0.334103	-0.651732	-0.275696	0.334194	-0.666792	-0.281383	0.378079	-0.669933	-0.306591	0.222220	-0.666251	-0.285634	0.222885	-0.593137	-0.353749	0.213681	-0.614794	-0.235548	0.108724	-0.687989	-0.194447	0.100295	-0.620998	-0.174913	0.084557	-0.635209	
877	4.3850	-0.280719	1.577180	-0.460480	-0.283461	1.573306	-0.631924	-0.207847	1.575941	-0.289954	-0.151808	1.526998	-0.477225	-0.114685	1.089571	-0.364780	-0.133954	1.098613	-0.588486	-0.163032	1.148779	-0.330261	-0.191324	1.150870	-0.610234	-0.263250	1.149189	-0.405059	-0.271544	1.150115	-0.510432	-0.268213	1.153252	-0.453817	-0.231782	0.877151	-0.286189	-0.225537	0.817265	-0.286136	-0.161473	0.820179	-0.293936	-0.159284	0.881803	-0.295647	-0.236970	0.588410	-0.310589	-0.221716	0.569079	-0.406914	-0.315611	0.399293	-0.296743	-0.320773	0.357266	-0.302668	-0.260956	0.354592	-0.290767	-0.258675	0.394951	-0.289859	-0.296483	0.213092	-0.308473	-0.258887	0.225122	-0.375720	-0.330483	0.210956	-0.362642	-0.221307	0.097024	-0.280126	-0.166598	0.101065	-0.339798	-0.149938	0.084889	-0.326199	-0.257193	0.892238	-0.660498	-0.246945	0.831758	-0.666779	-0.182037	0.836499	-0.662659	-0.184780	0.896039	-0.657281	-0.259192	0.595561	-0.646427	-0.236618	0.579374	-0.550533	-0.335039	0.379678	-0.655994	-0.336530	0.339649	-0.651003	-0.276410	0.340116	-0.666388	-0.282383	0.383982	-0.669479	-0.306907	0.227883	-0.665754	-0.284717	0.228461	-0.592888	-0.353074	0.218052	-0.613289	-0.234433	0.115851	-0.689541	-0.191608	0.107586	-0.623706	-0.172130	0.091954	-0.638401	
878	4.3900	-0.281446	1.581989	-0.460669	-0.283932	1.577904	-0.632422	-0.208744	1.580792	-0.289737	-0.152295	1.532278	-0.477169	-0.114418	1.094454	-0.364635	-0.133340	1.103255	-0.588576	-0.162848	1.153504	-0.330089	-0.190696	1.155286	-0.610413	-0.262795	1.154462	-0.405190	-0.270797	1.155380	-0.510629	-0.267617	1.158518	-0.453963	-0.231909	0.882089	-0.286650	-0.225485	0.822227	-0.286532	-0.161403	0.825333	-0.294088	-0.159391	0.886962	-0.295832	-0.236639	0.593395	-0.311083	-0.221034	0.574305	-0.407269	-0.316308	0.404557	-0.298277	-0.321575	0.362586	-0.304292	-0.261854	0.359667	-0.291879	-0.259432	0.399995	-0.290881	-0.297944	0.218307	-0.310236	-0.259334	0.230185	-0.376919	-0.331073	0.215582	-0.365014	-0.222465	0.103500	-0.279020	-0.166483	0.107145	-0.337569	-0.149877	0.090970	-0.323615	-0.257052	0.897121	-0.660527	-0.246981	0.836557	-0.666408	-0.182082	0.841108	-0.661858	-0.184640	0.900696	-0.656853	-0.260252	0.600990	-0.645905	-0.237560	0.584950	-0.550105	-0.336001	0.384995	-0.655033	-0.337211	0.344962	-0.650102	-0.277261	0.345739	-0.666016	-0.283490	0.389597	-0.669015	-0.307394	0.233313	-0.665201	-0.283970	0.233877	-0.592541	-0.352611	0.222357	-0.611770	-0.233706	0.122604	-0.690783	-0.189404	0.114519	-0.625945	-0.170004	0.099007	-0.641096	
879	4.3950	-0.282116	1.586586	-0.460865	-0.284384	1.582265	-0.632919	-0.209617	1.585409	-0.289526	-0.152723	1.537279	-0.477138	-0.114276	1.099144	-0.364501	-0.132845	1.107627	-0.588656	-0.162816	1.157961	-0.329919	-0.190124	1.159290	-0.610634	-0.262535	1.159456	-0.405393	-0.270208	1.160358	-0.510885	-0.267210	1.163496	-0.454167	-0.232053	0.886825	-0.287043	-0.225382	0.826997	-0.286770	-0.161283	0.830353	-0.294037	-0.159525	0.891994	-0.295896	-0.236008	0.598098	-0.311442	-0.219979	0.579249	-0.407486	-0.316919	0.409605	-0.299833	-0.322352	0.367706	-0.305975	-0.262734	0.364449	-0.293019	-0.260104	0.404750	-0.291899	-0.299570	0.223345	-0.312031	-0.259988	0.235059	-0.378219	-0.331893	0.220241	-0.367423	-0.224246	0.109537	-0.278362	-0.167212	0.112642	-0.335907	-0.150767	0.096499	-0.321546	-0.256888	0.901823	-0.660556	-0.246915	0.841202	-0.666100	-0.182041	0.845643	-0.661096	-0.184497	0.905260	-0.656397	-0.261201	0.606174	-0.645548	-0.238050	0.590266	-0.549899	-0.336977	0.390101	-0.653925	-0.337948	0.350055	-0.649069	-0.278228	0.351067	-0.665677	-0.284654	0.394919	-0.668542	-0.308004	0.238508	-0.664645	-0.283509	0.239070	-0.592120	-0.352418	0.226551	-0.610388	-0.233250	0.128995	-0.691699	-0.187805	0.121089	-0.627649	-0.168450	0.105728	-0.643191	
880	4.4000	-0.282722	1.590983	-0.461072	-0.284810	1.586406	-0.633409	-0.210402	1.589778	-0.289320	-0.153093	1.542019	-0.477132	-0.114254	1.103651	-0.364385	-0.132454	1.111786	-0.588715	-0.162928	1.162187	-0.329760	-0.189632	1.162979	-0.610882	-0.262457	1.164186	-0.405663	-0.269779	1.165072	-0.511196	-0.266976	1.168206	-0.454423	-0.232225	0.891376	-0.287363	-0.225271	0.831594	-0.286866	-0.161158	0.835224	-0.293785	-0.159688	0.896881	-0.295819	-0.235176	0.602545	-0.311673	-0.218626	0.583928	-0.407570	-0.317460	0.414450	-0.301372	-0.323106	0.372646	-0.307671	-0.263603	0.368966	-0.294158	-0.260710	0.409241	-0.292891	-0.301340	0.228205	-0.313840	-0.260839	0.239738	-0.379617	-0.332935	0.224909	-0.369834	-0.226523	0.115157	-0.278161	-0.168680	0.117593	-0.334900	-0.152458	0.101538	-0.320114	-0.256696	0.906392	-0.660578	-0.246753	0.845734	-0.665866	-0.181911	0.850134	-0.660436	-0.184334	0.909768	-0.655966	-0.262002	0.611121	-0.645312	-0.238174	0.595330	-0.549864	-0.337932	0.395020	-0.652762	-0.338736	0.354960	-0.647977	-0.279269	0.356111	-0.665354	-0.285818	0.399962	-0.668067	-0.308714	0.243422	-0.664061	-0.283395	0.243999	-0.591617	-0.352562	0.230592	-0.609245	-0.232964	0.135066	-0.692322	-0.186731	0.127313	-0.628816	-0.167359	0.112141	-0.644652	
881	4.4050	-0.283264	1.595191	-0.461285	-0.285170	1.590344	-0.633902	-0.211106	1.593914	-0.289132	-0.153413	1.546505	-0.477153	-0.114349	1.107988	-0.364282	-0.132155	1.115767	-0.588742	-0.163177	1.166214	-0.329618	-0.189237	1.166436	-0.611135	-0.262539	1.168658	-0.405986	-0.269506	1.169541	-0.511536	-0.266903	1.172657	-0.454715	-0.232431	0.895752	-0.287619	-0.225187	0.836019	-0.286850	-0.161060	0.839932	-0.293348	-0.159881	0.901599	-0.295597	-0.234207	0.606758	-0.311778	-0.217031	0.588368	-0.407540	-0.317940	0.419117	-0.302858	-0.323852	0.377408	-0.309349	-0.264472	0.373224	-0.295288	-0.261284	0.413483	-0.293839	-0.303232	0.232897	-0.315665	-0.261915	0.244228	-0.381100	-0.334214	0.229547	-0.372214	-0.229133	0.120410	-0.278400	-0.170734	0.122089	-0.334557	-0.154754	0.106172	-0.319363	-0.256480	0.910851	-0.660573	-0.246517	0.850178	-0.665709	-0.181704	0.854587	-0.659957	-0.184150	0.914234	-0.655616	-0.262598	0.615832	-0.645164	-0.238004	0.600150	-0.549943	-0.338848	0.399758	-0.651628	-0.339571	0.359686	-0.646905	-0.280341	0.360858	-0.665020	-0.286931	0.404722	-0.667589	-0.309512	0.248057	-0.663457	-0.283703	0.248649	-0.591054	-0.353066	0.234436	-0.608358	-0.232787	0.140856	-0.692685	-0.186107	0.133212	-0.629482	-0.166637	0.118247	-0.645504	
882	4.4100	-0.283741	1.599224	-0.461497	-0.285450	1.594091	-0.634389	-0.211739	1.597827	-0.288969	-0.153681	1.550737	-0.477199	-0.114550	1.112170	-0.364183	-0.131933	1.119590	-0.588724	-0.163558	1.170064	-0.329500	-0.188941	1.169720	-0.611373	-0.262763	1.172890	-0.406334	-0.269384	1.173773	-0.511883	-0.266980	1.176858	-0.455019	-0.232678	0.899944	-0.287836	-0.225152	0.840267	-0.286757	-0.161005	0.844456	-0.292757	-0.160111	0.906132	-0.295243	-0.233137	0.610742	-0.311765	-0.215258	0.592573	-0.407404	-0.318382	0.423610	-0.304266	-0.324605	0.381988	-0.310995	-0.265364	0.377243	-0.296406	-0.261843	0.417469	-0.294745	-0.305249	0.237416	-0.317508	-0.263242	0.248524	-0.382666	-0.335739	0.234101	-0.374528	-0.231935	0.125358	-0.279040	-0.173208	0.126236	-0.334833	-0.157447	0.110499	-0.319277	-0.256252	0.915202	-0.660518	-0.246236	0.854530	-0.665624	-0.181441	0.858990	-0.659725	-0.183948	0.918636	-0.655398	-0.262960	0.620299	-0.645077	-0.237642	0.604715	-0.550092	-0.339708	0.404308	-0.650599	-0.340436	0.364231	-0.645921	-0.281408	0.365319	-0.664654	-0.287948	0.409186	-0.667114	-0.310393	0.252425	-0.662845	-0.284414	0.253002	-0.590435	-0.353917	0.238074	-0.607720	-0.232702	0.146382	-0.692824	-0.185865	0.138785	-0.629719	-0.166220	0.124044	-0.645827	
883	4.4150	-0.284150	1.603088	-0.461710	-0.285646	1.597658	-0.634867	-0.212296	1.601522	-0.288841	-0.153899	1.554720	-0.477264	-0.114863	1.116201	-0.364082	-0.131783	1.123258	-0.588653	-0.164064	1.173762	-0.329410	-0.188747	1.172873	-0.611575	-0.263114	1.176873	-0.406681	-0.269402	1.177767	-0.512217	-0.267197	1.180810	-0.455314	-0.232970	0.903932	-0.288035	-0.225171	0.844326	-0.286625	-0.161004	0.848787	-0.292053	-0.160384	0.910464	-0.294784	-0.231980	0.614488	-0.311642	-0.213347	0.596534	-0.407176	-0.318796	0.427914	-0.305596	-0.325373	0.386397	-0.312590	-0.266291	0.381016	-0.297516	-0.262397	0.421201	-0.295615	-0.307374	0.241749	-0.319367	-0.264820	0.252640	-0.384314	-0.337509	0.238526	-0.376754	-0.234810	0.130035	-0.280032	-0.175945	0.130128	-0.335648	-0.160360	0.114592	-0.319787	-0.256032	0.919428	-0.660405	-0.245957	0.858770	-0.665611	-0.181163	0.863297	-0.659775	-0.183736	0.922937	-0.655352	-0.263074	0.624496	-0.645041	-0.237170	0.609012	-0.550269	-0.340472	0.408657	-0.649754	-0.341311	0.368571	-0.645057	-0.282417	0.369480	-0.664261	-0.288834	0.413355	-0.666665	-0.311355	0.256529	-0.662225	-0.285458	0.257064	-0.589771	-0.355051	0.241492	-0.607274	-0.232716	0.151628	-0.692759	-0.185948	0.144021	-0.629604	-0.166076	0.129516	-0.645731	
884	4.4200	-0.284488	1.606785	-0.461922	-0.285756	1.601051	-0.635335	-0.212774	1.605003	-0.288749	-0.154068	1.558458	-0.477348	-0.115285	1.120071	-0.363965	-0.131707	1.126773	-0.588531	-0.164683	1.177314	-0.329351	-0.188665	1.175936	-0.611725	-0.263567	1.180597	-0.406999	-0.269554	1.181518	-0.512518	-0.267535	1.184509	-0.455584	-0.233305	0.907695	-0.288233	-0.225238	0.848176	-0.286481	-0.161048	0.852907	-0.291278	-0.160700	0.914581	-0.294257	-0.230740	0.617984	-0.311422	-0.211345	0.600241	-0.406854	-0.319183	0.432030	-0.306830	-0.326163	0.390613	-0.314125	-0.267248	0.384547	-0.298615	-0.262950	0.424677	-0.296459	-0.309593	0.245908	-0.321226	-0.266632	0.256580	-0.386013	-0.339506	0.242797	-0.378870	-0.237679	0.134455	-0.281324	-0.178823	0.133846	-0.336908	-0.163357	0.118508	-0.320815	-0.255850	0.923494	-0.660232	-0.245723	0.862862	-0.665662	-0.180911	0.867455	-0.660097	-0.183540	0.927083	-0.655478	-0.262949	0.628405	-0.645059	-0.236645	0.613022	-0.550451	-0.341134	0.412781	-0.649112	-0.342171	0.372679	-0.644339	-0.283338	0.373335	-0.663843	-0.289574	0.417222	-0.666244	-0.312386	0.260355	-0.661577	-0.286752	0.260857	-0.589074	-0.356400	0.244706	-0.606948	-0.232860	0.156562	-0.692536	-0.186314	0.148896	-0.629226	-0.166192	0.134614	-0.645308	
